<?xml version="1.0" standalone="no"?>
<!DOCTYPE svg PUBLIC "-//W3C//DTD SVG 20010904//EN"
 "http://www.w3.org/TR/2001/REC-SVG-20010904/DTD/svg10.dtd">
<svg version="1.0" xmlns="http://www.w3.org/2000/svg"
 width="192.000000pt" height="192.000000pt" viewBox="0 0 192.000000 192.000000"
 preserveAspectRatio="xMidYMid meet">
<metadata>
Created by potrace 1.11, written by Peter Selinger 2001-2013
</metadata>
<g transform="translate(0.000000,192.000000) scale(0.100000,-0.100000)"
fill="#000000" stroke="none">
<path d="M840 1756 c-3 -2 -21 -6 -40 -9 -19 -3 -57 -12 -85 -21 -27 -9 -52
-16 -55 -17 -3 0 -24 -9 -47 -20 -23 -10 -44 -19 -48 -19 -3 0 -31 -17 -63
-37 -78 -51 -211 -185 -256 -259 -43 -70 -94 -196 -104 -257 -9 -54 -9 -260 0
-312 16 -92 89 -255 138 -307 11 -12 20 -25 20 -28 0 -9 120 -130 128 -130 4
-1 22 -14 41 -30 19 -16 38 -27 43 -24 4 3 8 1 8 -4 0 -5 36 -25 79 -45 75
-35 121 -49 201 -65 47 -9 265 -9 315 0 147 26 317 113 421 216 66 64 104 110
104 122 0 5 4 10 9 10 18 0 105 200 118 270 1 8 4 29 7 45 7 38 8 222 1 255
-20 104 -20 103 -71 215 -65 145 -218 296 -378 373 -50 24 -143 56 -195 68
-33 7 -285 16 -291 10z"/>
</g>
</svg>
